<svg xmlns="http://www.w3.org/2000/svg" xmlns:xlink="http://www.w3.org/1999/xlink" viewBox="0 0 195.14 195.14">
  <defs>
    <linearGradient id="aa6270b0-5f84-4223-986f-e31332af5896" x1="139.62" y1="9.5" x2="55.52" y2="185.64" gradientUnits="userSpaceOnUse">
      <stop offset="0.02" stop-color="#aa1a6c"/>
      <stop offset="0.03" stop-color="#a81a6c"/>
      <stop offset="0.15" stop-color="#86216e"/>
      <stop offset="0.27" stop-color="#6e2570"/>
      <stop offset="0.38" stop-color="#5f2871"/>
      <stop offset="0.47" stop-color="#5a2971"/>
      <stop offset="0.56" stop-color="#563173"/>
      <stop offset="0.68" stop-color="#4a477a"/>
      <stop offset="0.83" stop-color="#376a85"/>
      <stop offset="0.98" stop-color="#219292"/>
    </linearGradient>
  </defs>
  <title>an</title>
  <g id="b608db7d-a0b5-4c77-9c39-fa4a5d70f788" data-name="Layer 2">
    <g id="a6dcb29b-6229-4f29-81c2-dfb965c96571" data-name="Layer 1">
      <g>
        <rect width="195.14" height="195.14" rx="97.57" fill="url(#aa6270b0-5f84-4223-986f-e31332af5896)"/>
        <g>
          <path d="M103.68,86.43v32.41A6.16,6.16,0,0,1,97.52,125h0a6.17,6.17,0,0,1-6.17-6.17v-7.79A4.34,4.34,0,0,0,87,106.71H71.24a4.34,4.34,0,0,0-4.35,4.34v7.79A6.16,6.16,0,0,1,60.73,125h0a6.17,6.17,0,0,1-6.17-6.17V86.43a23.46,23.46,0,0,1,1.94-9.5,25.22,25.22,0,0,1,5.27-7.75,24.33,24.33,0,0,1,17.35-7.11A24.46,24.46,0,0,1,88.67,64a24.15,24.15,0,0,1,7.8,5.23,24.87,24.87,0,0,1,5.27,7.75A23.3,23.3,0,0,1,103.68,86.43ZM91.35,94.38V86.53a11.56,11.56,0,0,0-1-4.73,12.85,12.85,0,0,0-2.63-3.88,12.19,12.19,0,0,0-3.88-2.58,12.35,12.35,0,0,0-9.45,0,12.19,12.19,0,0,0-3.88,2.58,12.85,12.85,0,0,0-2.63,3.88,11.41,11.41,0,0,0-1,4.73v7.85Z" fill="#fff" opacity="0.8"/>
          <path d="M134.41,125h0a6.17,6.17,0,0,1-6.17-6.17V100.45a13.09,13.09,0,0,0-1-4.78,12.7,12.7,0,0,0-2.59-3.87,11.58,11.58,0,0,0-3.87-2.64,12.31,12.31,0,0,0-4.83-.94,12,12,0,0,0-4.72.94,11.72,11.72,0,0,0-3.88,2.64,12.85,12.85,0,0,0-2.58,3.87,13.31,13.31,0,0,0-1,4.78v18.39A6.16,6.16,0,0,1,97.52,125h0a6.17,6.17,0,0,1-6.17-6.17V100.25A25.16,25.16,0,0,1,98.66,83a24.44,24.44,0,0,1,7.76-5.22,23.89,23.89,0,0,1,9.49-1.89A24.17,24.17,0,0,1,133.26,83a24.92,24.92,0,0,1,5.27,7.8,24.51,24.51,0,0,1,2,9.45v18.59A6.16,6.16,0,0,1,134.41,125Z" fill="#ed1e79" opacity="0.8"/>
        </g>
      </g>
    </g>
  </g>
</svg>
