<?xml version="1.0" encoding="UTF-8" standalone="no"?><svg xmlns:svg="http://www.w3.org/2000/svg" xmlns="http://www.w3.org/2000/svg" xmlns:xlink="http://www.w3.org/1999/xlink" version="1.0" width="98px" height="16px" viewBox="0 0 128 21" xml:space="preserve"><linearGradient id="linear-gradient" gradientTransform="rotate(90)"><stop offset="0%" stop-color="#fff646"/><stop offset="100%" stop-color="#f7a61c"/></linearGradient><path d="M-1.38-1.03h130.06V21.7H-1.38" fill="url(#linear-gradient)" /><g><path d="M10.4 10.5L-3.86-3.8H6.8l14.27 14.3L6.8 24.8H-3.87zm21.34 0L17.46-3.8h10.67L42.4 10.5 28.14 24.8H17.46zm21.33 0L38.8-3.8h10.66l14.28 14.3-14.28 14.3H38.8zm21.34 0L60.15-3.8H70.8l14.28 14.3L70.8 24.8H60.13zm21.35 0L81.45-3.8h10.68l14.28 14.3-14.26 14.3H81.46zm21.33 0L102.8-3.8h10.67l14.27 14.3-14.28 14.3H102.8zm-128 0L-25.2-3.8h10.67L-.26 10.5l-14.28 14.3H-25.2z"/><animateTransform attributeName="transform" type="translate" from="0 0" to="21.5 0" dur="1000ms" repeatCount="indefinite"/></g><path d="M-.7-.7h129.4v11.03H-.7V-.7z" fill="#fff" opacity="0.27"/></svg>