<svg width="78" height="78" viewBox="0 0 78 78" version="1.1" xmlns="http://www.w3.org/2000/svg" xmlns:xlink="http://www.w3.org/1999/xlink">
<title>logo</title>
<desc>Created using Figma</desc>
<g id="Canvas" transform="translate(9211 -1154)">
<g id="logo">
<g id="Dark">
<g id="M/opacity">
<g id="Vector">
<use xlink:href="#path0_fill" transform="translate(-9211 1154)" fill="url(#paint0_linear)"/>
</g>
<g id="Vector" opacity="0.5">
<use xlink:href="#path1_fill" transform="translate(-9172 1154)" fill="url(#paint1_linear)"/>
</g>
</g>
</g>
</g>
</g>
<defs>
<linearGradient id="paint0_linear" x1="0" y1="0" x2="1" y2="0" gradientUnits="userSpaceOnUse" gradientTransform="matrix(2.38804e-15 77.998 -38.9997 4.776e-15 38.9997 -4.776e-15)">
<stop offset="0.00552486" stop-color="#BC7FFF"/>
<stop offset="1" stop-color="#6CA6D7"/>
</linearGradient>
<linearGradient id="paint1_linear" x1="0" y1="0" x2="1" y2="0" gradientUnits="userSpaceOnUse" gradientTransform="matrix(2.38804e-15 77.998 -38.9997 4.776e-15 38.9997 -4.776e-15)">
<stop offset="0.00552486" stop-color="#BC7FFF"/>
<stop offset="1" stop-color="#6CA6D7"/>
</linearGradient>
<path id="path0_fill" d="M 38.9997 77.998L 38.9997 67.0614L 30.3201 58.3819L 38.9997 49.702L 38.9997 38.7653L 24.8514 52.9137L 10.9369 38.999L 38.9997 10.9363L 38.9997 -9.16485e-12L 0 38.999L 38.9997 77.998Z"/>
<path id="path1_fill" d="M 6.00638e-07 10.9367L 28.0628 38.9994L 14.1483 52.9137L 6.00638e-07 38.7661L 6.00638e-07 49.7024L 8.68004 58.3823L 6.00638e-07 67.0618L 6.00638e-07 77.998L 19.6165 58.3823L 38.9997 38.9994L 6.00638e-07 0L 6.00638e-07 10.9367Z"/>
</defs>
</svg>
