<svg viewBox="0 0 314 314" version="1.1" xmlns="http://www.w3.org/2000/svg" xmlns:xlink="http://www.w3.org/1999/xlink">
    <g stroke="none" stroke-width="1" fill-rule="evenodd">
        <g transform="translate(-465.000000, -660.000000)">
            <g transform="translate(465.000000, 660.000000)">
                <polygon points="92.2385914 87 123.226879 87 157.525701 139.018555 192.196599 87.0859375 221.951847 87.0859375 174.820623 156.598633 223.402654 227.489258 191.967905 227.489258 157.755193 175.689453 122.392888 227.351562 91 227.351562 140.283513 156.523438"></polygon>
                <path d="M157,314 C70.2912943,314 0,243.708706 0,157 C0,70.2912943 70.2912943,0 157,0 C243.708706,0 314,70.2912943 314,157 C314,243.708706 243.708706,314 157,314 Z M157,291 C231.006156,291 291,231.006156 291,157 C291,82.9938435 231.006156,23 157,23 C82.9938435,23 23,82.9938435 23,157 C23,231.006156 82.9938435,291 157,291 Z"></path>
            </g>
        </g>
    </g>
</svg>