<?xml version="1.0" encoding="UTF-8"?>
<svg width="248px" height="279px" viewBox="0 0 248 279" version="1.1" xmlns="http://www.w3.org/2000/svg" xmlns:xlink="http://www.w3.org/1999/xlink">
    <!-- Generator: Sketch 49.3 (51167) - http://www.bohemiancoding.com/sketch -->
    <title>GF Blue Fill Logo</title>
    <desc>Created with Sketch.</desc>
    <defs></defs>
    <g id="Dark" stroke="none" stroke-width="1" fill="none" fill-rule="evenodd">
        <g id="GF-Stroke-Logo" transform="translate(-727.000000, -134.000000)">
            <g id="GF-Blue-Fill-Logo" transform="translate(727.000000, 134.000000)">
                <path d="M223.492735,58.6304269 L147.95484,14.9305838 C141.399754,11.1848206 132.659848,9 123.919942,9 C115.179724,9 106.439817,11.1848206 99.8850437,14.9305838 L24.0345862,58.6304269 C10.6127878,66.7458313 0,84.5378947 0,100.145137 L0,187.856763 C0,203.463693 10.3005369,221.568008 24.0345862,229.371473 L99.8850437,273.071316 C106.439817,276.816767 115.179724,279.0019 123.919942,279.0019 C132.659848,279.0019 141.399754,276.816767 147.95484,273.071316 L223.804985,229.371473 C237.227096,221.255757 247.839884,203.463693 247.839884,187.856763 L247.839884,100.145137 C247.839884,84.2259557 237.539035,66.4338923 223.492735,58.6304269 Z" id="stroke-F-Copy" fill="#375767"></path>
                <path d="M95.6646347,129.3158 L191.026345,129.3158 L191.026345,105 L95.8647747,105 C83.5568047,105 73.2501347,109.3028 65.2449547,117.6082 C46.4327747,137.7212 49.1345247,175.5457 49.1345247,177.1467 L50.0351147,188.354 L190.025745,188.354 L190.025745,151.1299 L165.609945,151.1299 L165.609945,164.1383 L73.7504547,164.1383 C74.2507847,156.1331 76.2520747,141.9239 83.2566147,134.5191 C86.3586147,130.9168 90.2611447,129.3158 95.6646347,129.3158 Z" id="Fill-21" fill="#E7E9EB"></path>
                <path d="M225.670882,16.3598934 L200.770997,1.95492412 C198.610216,0.720191908 195.729242,0 192.848269,0 C189.967193,0 187.08622,0.720191908 184.925541,1.95492412 L159.922625,16.3598934 C155.498339,19.0350094 152,24.8998846 152,30.0445679 L152,58.9573321 C152,64.1019126 155.395411,70.0697164 159.922625,72.6420066 L184.925541,87.0469759 C187.08622,88.2816053 189.967193,89.0019 192.848269,89.0019 C195.729242,89.0019 198.610216,88.2816053 200.770997,87.0469759 L225.77381,72.6420066 C230.198199,69.9667878 233.696538,64.1019126 233.696538,58.9573321 L233.696538,30.0445679 C233.696538,24.7970588 230.301025,18.9321836 225.670882,16.3598934 Z" id="stroke-F" fill="#E7E9EB"></path>
                <path d="M178.179283,56.2747335 C178.079741,57.3692984 177.383146,57.8669093 176.288581,57.8669093 L172.407833,57.8669093 C171.313268,57.8669093 170.915199,57.3692984 171.014741,56.2747335 L173.701482,39.0600231 C174.49752,34.08471 177.084619,31 182.955612,31 L214.200781,31 C215.295345,31 215.693414,31.4975114 215.593872,32.5920763 L215.096361,35.6767863 C214.996819,36.7713512 214.300323,37.2689621 213.205758,37.2689621 L183.851192,37.2689621 C181.960489,37.2689621 180.865925,38.2639849 180.567398,40.0551453 L180.368413,41.8462063 L208.628414,41.8462063 C209.722979,41.8462063 210.120948,42.3438172 209.921964,43.4383821 L209.424452,46.5230921 C209.32491,47.617657 208.628414,48.1151684 207.533849,48.1151684 L179.273848,48.1151684 L178.179283,56.2747335 Z" id="Path" fill="#375767"></path>
            </g>
        </g>
    </g>
</svg>